<?xml version="1.0" encoding="utf-8"?>
<!-- Generator: Adobe Illustrator 19.0.0, SVG Export Plug-In . SVG Version: 6.00 Build 0)  -->
<svg version="1.1" id="Capa_1" xmlns="http://www.w3.org/2000/svg" xmlns:xlink="http://www.w3.org/1999/xlink" x="0px" y="0px"
	 viewBox="0 0 796 416" style="enable-background:new 0 0 796 416;" xml:space="preserve">
<style type="text/css">
	.st0{fill:#BF0000;}
	.st1{fill:#0065C1;}
</style>
<g id="XMLID_55_">
	<path id="XMLID_56_" class="st0" d="M0,385.7c0.9-1.7,1.5-2.7,1.8-2.9l5.7-3.5c1.4-1,4-4.2,7.8-9.4c0.4-0.5,1.9-1.8,4.5-3.7
		c1.4-1,2.7-2.5,3.7-4.5c-0.1-1.2-0.2-2.2-0.2-3.1c0-2.7,1.8-5.7,5.3-8.8c4.9-4.7,7.9-7.8,9-9.4l10.7-19.5c0.1-0.1,1.4-0.5,3.7-1.2
		l0.8-0.8c-0.1-1.4-0.2-2.7-0.2-3.7c0-1.6,0.1-2.5,0.4-2.9l4.9-6.4l19.3-30.1l0.4-2c-1-0.8-1.8-1.2-2.3-1.2c-0.3,0-1,0.1-2.1,0.4
		c-0.5,0.1-1.2,0.2-2,0.2c-1,0-2.3-0.1-3.7-0.2c-0.8-2.5-1.2-4.3-1.2-5.5c0-0.7,0.8-2.1,2.5-4.5c1-3.4,2.1-6,3.3-7.8
		c2-2.7,3.5-4.9,4.7-6.6c2.6,0,4.4,0.2,5.5,0.6l8.6,2.9l0.6-0.4c0.4-1.4,0.6-2.5,0.6-3.1c0-1-0.3-2.5-1-4.5c2.3-1.6,3.6-2.7,3.9-3.3
		l3.9-7.4c0.9-1.8,3.4-4.6,7.6-8.4c0.4-3.1,0.8-5,1.3-5.7c0.5-0.6,3-3,7.5-7c0.4-0.5,1.9-4,4.5-10.5c0.8-1.7,4.4-7.3,10.7-16.8
		l12.9-25l5.3-5.7c0.3-2.3,0.5-3.7,0.8-4.1c0.3-0.4,2.1-3.1,5.5-8c0.3-0.4,0.4-0.8,0.4-1.4c0-0.9-0.1-2-0.4-3.1
		c1.2-1,2.4-2.9,3.7-5.5c1.2-2.5,2.4-4.7,3.7-6.6l3.9,5.7c0.6-1.6,1-2.7,1-3.3c0-1-0.5-2.6-1.6-4.7c1.3-3.1,2.3-5.1,2.9-5.9
		c2.5-3.6,3.7-5.8,3.7-6.4c0.1-0.1,0.2-1.6,0.2-4.3c0-0.4,0.7-1.8,2.1-4.3c0.5-0.8,1.8-4,3.9-9.6c0.3-0.8,1-2.5,2.1-5.3l8.4-0.8
		l-0.8-2.5l-5.1-2.3v-3.1c2-1.6,3.4-3.3,4.3-5.3l-2.1-2v-0.8c2-1.8,3.8-4.4,5.7-7.6c1.7-3.1,3.2-5.7,4.5-7.8c-1-1.8-1.6-3.3-1.6-4.5
		v-1.4v-2v-4.1l15.8-10.9l3.7,2.7c1.3-2.5,2.1-4.1,2.3-4.9c0.9-2.2,1.8-3.3,2.7-3.3c0.9,0,2,0.3,3.1,0.8c0.6-2.7,2-4.8,3.9-6.1
		c2.6-2,4.9-2.9,7-2.9c3.9,0,6.1,4.8,6.4,14.3c1.4,6.3,2.2,10.5,2.3,12.9c0.5,4,2.2,8.6,5.1,13.7c1.7,6.8,2.5,11.2,2.5,13.3
		c0,1.4,0,3,0,4.7l-7.8,4.1c1.2,2.6,2.3,4.2,3.3,4.9c0.6,0.3,3.6,1.2,8.8,2.7c2.5,0.8,5.1,4.6,7.8,11.5c2,4.8,2.9,7.7,2.9,8.8
		c0,0.8-0.8,2.4-2.3,4.9c2.1,2.1,3.4,3.4,4.1,3.9c3.3,2.9,5,4.6,5.3,5.3l2.3,6.1l3.9,9.8c0.4,0.8,0.7,2.9,1,6.4
		c4,4.2,6.3,8.5,6.8,12.9c0.4,3.5,0.6,5.3,0.6,5.5l4.3,6.6c0.5,1,3.3,6.5,8.2,16.4l-4.5,2.7c0.8,2.5,1.8,4.3,3.1,5.5l2.9,0.6
		l-0.6,4.3c13.3,12.6,20.1,24.9,20.5,36.9c0.5,2.9,3.3,8.9,8.4,18.2c7,13.3,10.9,21,11.7,23.2c1,2.9,2.5,5.7,4.3,8.4l12.1,26.8
		l-0.4,5.7c7.8,4.2,11.7,8.1,11.7,11.9c0,1.8-1.9,3.6-5.7,5.5c1,2.2,2.1,3.6,3.1,4.1c0.3,0.3,1.6,0.8,3.9,1.6
		c1.8,0.7,3.8,3.1,5.9,7.2c1,2,2.7,6.6,5.1,14.1c5.6,8.6,9.1,14.2,10.5,16.8c-2.5,2-3.7,4-3.7,6.3c0,0.8,0.1,1.8,0.2,2.9
		c-4.4,2-7.6,3.1-9.4,3.5c-0.7,0.3-2.9,0.5-6.8,0.6c-1.8,0.1-6.4,1.7-13.7,4.7c-3.4-7.7-5.4-13.2-6.1-16.4c-0.5-2.7-1.8-5.7-3.7-8.8
		c-3.5-9.6-5.3-15-5.3-16.2c0-0.9,0.1-2,0.2-3.1c-2.3-2.2-3.7-4.2-4.1-5.9c-0.1-0.4-0.3-2.4-0.4-6.1c-0.3-1.4-0.4-2.4-0.4-2.9
		c0-1.6,0.6-3.7,2-6.4l-5.9-5.3c1.6-2,2.7-3.3,3.3-3.9c1.3-1,2-2,2-2.7s-0.1-1.7-0.4-2.7l-9.4,0.8c-3.1-4.2-5.3-7.5-6.4-10
		c-0.7-1.6-1.7-5.7-3.1-12.3l-2.9-6.8c-1.6-8.3-2.7-13.3-3.5-14.8c-2.2-4.7-5.9-7-10.9-7c-4.6,0-7.1,4.9-7.6,14.6
		c-1,0.4-1.7,0.6-2,0.6c-1.4,0-3.3-0.9-5.5-2.7c-3.8-2.6-7.7-4.3-11.7-5.1c-2-0.3-4.7-1.2-8.2-2.9c-4.7-2.2-8.5-3.3-11.3-3.3
		c-1.2,0-4.8,0.7-10.7,2l-5.7-1l-6.3,0.6h-5.3l-5.3,0.8l-9.2,0.2c-3.9,0.1-6.5,0.2-7.8,0.2l-2.9,0.2l-12.1-2.7l-5.9,1.2
		c-4.2-1.2-6.4-1.8-6.8-1.8c-0.8,0-3.9,0.7-9.4,2.1c-4,0.9-7.6,1.5-10.7,1.8l-5.5-6.3c-4.2,0.8-8.3,2.3-12.5,4.5
		c-0.4,0.3-3.3,0.8-8.6,1.6c-2,0.3-3,0.4-3.1,0.4c-1.6,0-3.5-0.2-5.9-0.6c-3.3-0.7-6.1-1-8.6-1c-1.8,0-5.1,0.6-9.8,1.8
		c-2.7,0.8-5.6,1.3-8.6,1.6c-1.4,2.3-2.3,3.9-2.7,4.7c-2,4-4.5,7.9-7.6,11.7c-2.2,3.5-5.3,8.7-9.2,15.4l-3.5-0.8c-1,1-1.6,2-1.6,2.9
		c0,0.8,0.2,2.1,0.6,4.1c0.1,0.8,0.3,1.9,0.4,3.3c-2.5,2.9-3.8,4.6-4.1,5.3L58,340.2c-1.7,2.7-3.5,5.7-5.5,9l-1.8,2.7L40,358.8
		c-0.5,0.4-0.8,1.1-0.8,2.1c0,1.4,1.5,3.4,4.5,5.9l-2.9,9.2c-3.1,1.2-5.3,2.2-6.4,3.1c-1.8,1.3-3.7,4.2-5.7,8.6
		c-3.8,1.6-6.2,2.7-7.2,3.5c-1.8,1.3-3.2,2-4.1,2c-0.4,0-1.7-0.7-3.9-2c-0.5-0.4-1.4-0.6-2.5-0.6c-0.8,0-1.7,0.1-2.7,0.2
		C5.7,388.3,3,386.6,0,385.7z M107.8,250.6c2.9-1.6,4.6-2.3,5.3-2.3c0.9,0,2.3,0.8,4.1,2.5l6.1-0.8l2.3,4.1
		c2.7-0.9,6.4-1.4,11.1-1.4h17.4c3.3,0.1,7.6,1.1,13.1,2.9c5.7,0.4,10,0.8,12.7,1.4c2.7,4,5.9,6.1,9.6,6.1l12.3-6.1l6.6,1.4h11.1
		l4.3,1.2l5.7-0.8l5.3,0.6l5.3-0.4l4.9,1.4l11.5-2l9-0.6l17.4-1.8l14.5,1.2c2.1,0,3.1-0.8,3.1-2.3c0-0.7-0.6-2.9-1.8-6.6
		c-0.3-1-0.5-2.6-0.6-4.7c-2.5-1.7-4.3-3.6-5.5-5.9c-4.6-9.2-7.2-13.9-7.8-13.9c-1.3-1.8-2.3-4-2.9-6.4c-0.5-2.2-1.6-4.6-3.1-7
		c0.6-3.4,1-6.3,1-8.6c0-1.3-0.5-3.4-1.6-6.4l-6.8,1c-1.4-3-2.3-4.9-2.5-5.9l-1.4-4.9l-4.3-6.1l-4.9-8.6l-2.1-3.7
		c-0.9-5.3-2.6-10.2-5.1-14.5c-1.8-3.3-2.7-6.1-2.5-8.6l3.9-1.8c-1.3-2.1-2.9-3.1-4.9-3.1c-0.8,0-1.7,0.1-2.7,0.2
		c-1.3-2.7-2.2-4.5-2.7-5.3c-3-4.4-4.6-6.8-4.7-7.2l-1.2-7.6l-2.9-5.1l-2.9-6.8l-6.4-8l-3.5-11.3l-3.3-5.9c-1.7-3.5-3.6-6.8-5.7-9.8
		c-3.3,2-5.5,4-6.6,6.3c-2.2,4.3-3.3,8.2-3.1,11.7h-1.2c-2.2,3.8-5.1,8.1-8.6,13.1L180.5,125c-2.1,3.6-3.5,6.8-4.1,9.4
		c-2.3,1.4-3.8,3.3-4.5,5.5c-2.5,5.6-6,9.2-10.5,10.7l1,5.5l-2.9,1.4h-0.2c-2.5-0.3-4.6-0.5-6.4-0.6l-1.6,2.5l5.1,3.1
		c-1.6,5.1-3.8,10.2-6.8,15.4c-6.1,11.7-11.9,19.3-17.4,22.7c-1.3,0.8-2.1,2.9-2.3,6.3c-0.1,2.5-0.7,4.8-1.8,7l-5.3,9.8l-4.5,4.9
		l-2.3,5.5c-3,4.8-4.8,8.1-5.5,9.8C109.6,246.1,108.7,248.3,107.8,250.6z"/>
	<path id="XMLID_59_" class="st1" d="M417.8,206.6c-2-1.2-2.9-2.5-2.9-4.1c0-0.6,0.8-3.9,2.3-9.8c0.5-3.5,2.1-10,4.9-19.3l8.4-0.6
		c-0.1-1.6-1-4.1-2.7-7.6c-0.4-0.8-0.6-1.8-0.6-2.9c0-1.6,1.6-6.8,4.9-15.8c1-5.3,2.7-10.2,4.9-14.6c1.6-2.6,3.7-6.2,6.4-10.7
		c1.8,0.3,3,0.5,3.5,0.8c2,0.7,3.1,1,3.3,1c0.9,0,2.2-0.7,3.9-2.1c1.7-0.3,2.8-0.6,3.3-1.2c0.5-0.5,1-1.6,1.4-3.1l-4.7-0.6l-2-7
		c0-1.3,2-3.9,5.9-7.8c0.9-0.9,2-2.2,3.1-3.9c1.7-2.9,2.9-4.6,3.5-5.3c2.2-2.2,3.8-4.6,4.7-7l1.4-1.4c2.3-3.4,4.2-5.6,5.7-6.6
		c0.8-0.6,3.4-2.5,8-5.5l0.6,0.6l5.5-2.7l0.4-4.5L516,44.5c0.9-0.8,2.9-2,5.9-3.5l5.3-3.5l4.9-1.4c5.1-3.5,7.9-5.3,8.6-5.3
		c1.2,0,3.1,0.7,5.7,2l2.7-7.2l8,1.6l0.6-3.7c4.3-1.3,7.2-2.2,8.6-2.7c4.7-1.8,9.4-2.9,14.1-3.3l5.9-1.8c4.6-0.9,7.1-1.5,7.6-1.8
		c1.2-0.5,2.7-1.7,4.7-3.5c1.8,0.1,3.4,0.2,4.7,0.2c1.6,0,4.8-0.8,9.8-2.5c2-0.6,4.1-1,6.4-1c2,0,3.8,0.3,5.7,0.8
		c1.4,0.4,2.3,0.5,2.7,0.4l26-0.8c4.9,0.3,9.5,2.7,13.7,7.2c2.9,3.1,4.6,4.7,5.3,4.7c2.3,0,4.6-2.7,6.6-8.2
		c4.2,2.7,7.7,4.1,10.5,4.1c0.9,0,1.8-0.1,2.7-0.2l5.3-1.2l6.3,2.1c17.2,4.4,28.3,7.7,33.2,10v5.9h-0.2c-2.1,2.1-3.4,3.5-3.9,4.1
		c-4.8,5.1-8,7.6-9.6,7.6c-1.3,0-3.5-0.8-6.4-2.5c-7.4-3-16-6.3-25.6-9.8l-2.5-6.4c-2.6,0.5-4.3,0.9-5.1,1.2c-2.1,0.7-3.3,1-3.7,1
		c-0.5,0-4.8-1.4-12.7-4.1c-2.3-0.9-3.8-1.8-4.5-2.7c-0.7-0.9-1.2-1.8-1.8-2.7c-4.3,1.7-7,2.5-8.2,2.5H642h-15.6l-4.9-0.6
		c-5.9,0.9-10.4,2-13.5,3.3L596.1,24c-5.1,1-9.1,1.8-11.9,2.3c-1.6,0.3-4.1,1.4-7.6,3.3l-9.8,4.5l-7,4.9
		c-14.2,5.9-23.8,12.1-28.7,18.8c-3.3,0.9-7.1,2.7-11.5,5.5c0,1.6-0.3,3.1-0.8,4.5c-2.6,1.3-6.1,4.1-10.4,8.4l-4.7,4.3
		c-3.9,5.3-6.4,8.3-7.6,9c-1.2,0.8-2.3,1.2-3.3,1.2c-0.5,0-1.3-0.1-2.3-0.2c0.8,1.4,1.2,2.3,1.2,2.7s-3.2,5.8-9.6,16.2
		c-5,5.2-7.8,8.4-8.6,9.6c-0.4,0.8-1.9,4.2-4.5,10.4l-4.1,9.8l-1.8,5.7c-3.6,6.4-5.9,11.1-6.8,14.3c-0.5,2.1-1.4,6-2.5,11.7
		c-2,7.7-3.1,11.9-3.3,12.7c-0.4,1.8-2.5,3.1-6.4,3.9c0.4,3.4,1.9,6.2,4.5,8.4c-1.3,3.4-2,5.6-2,6.6c0,2.9,0.5,6.4,1.6,10.7
		c0.1,0.4,0.2,0.7,0.2,0.8c0,1.2-0.6,2-1.8,2.5l-15.4,5.9c-1.2,0.4-1.8,1.1-1.8,2.1c0,0.5,0.3,1.2,1,2.1c2,3,3.2,5.2,3.7,6.6
		c1,2.7,1.7,4.2,2,4.3c2.9,2.3,5.8,4.8,8.8,7.2l3.3,9c0.9,2,1.5,4.3,1.8,7h-1.2l1.2,6.6l2.7,0.8c1.4,2.5,2.1,4.5,2.1,6.1h0.6
		c0.4,2.6,0.7,4.3,0.8,5.1c0.7,4,1.2,6.5,1.8,7.4l3.5,7c3.6,9.5,5.5,15.1,5.5,16.8c0,1.3-1.3,2-3.9,2l2,4.9c2.6-0.1,4.6,0.1,6.1,0.6
		c1.3,0.5,2.5,1.2,3.7,2c2.6,3,5.1,6.1,7.4,9.2l5.9,5.3l4.5,5.7c5.2,2.9,8.8,5.1,10.7,6.6c0.1,3.1,1.2,5.4,3.1,6.8
		c2.5,1.8,5.6,3.4,9.4,4.7l8.8,5.3l6.6,3.1l6.1,3.1l6.4,2.5l4.5,3.3c1.3,0.7,2.6,1.8,3.9,3.3c1.8-1.8,3.6-2.7,5.3-2.7
		c0.3,0,7.8,2,22.7,6.1c16.1,0.1,24.6,0.2,25.5,0.2c0.8,0,1.9,0.4,3,1.2c2.2,1.2,4.1,1.9,5.7,2.1c1.8-1,2.9-1.9,3.3-2.5
		c1-0.9,1.8-1.4,2.3-1.4l2.3,0.2l1.4,0.2l15.8-2.1c2.5-0.1,8.3-1.4,17.6-3.9c4.8,1.4,7.7,2.1,8.6,2.1c2,0,5.2-1.5,9.8-4.5l9.2-2.1
		c5.6-1.8,9.3-3.3,11.1-4.3l4.5,1c1.7,0.3,7.2-1.2,16.6-4.3c10.8-3.6,16.5-5.6,17-5.9c0.4-0.3,1.4-1.5,3.1-3.7l7.4-3.7
		c4-2.3,7.8-3.5,11.3-3.5c0.8,0,2.3,0.4,4.7,1.2c0.1-3.4,0.7-5.5,1.8-6.3c0.7-0.7,2.9-1.8,6.6-3.3c4.2-2.5,6.5-3.7,7-3.7
		c0.9,0,2.3,0.6,4.1,1.8c-0.5,6.9-1.9,12.2-4.1,16c-1.2,2-2.1,4.5-2.7,7.6c-0.4,1.2-1.2,2.1-2.3,2.9c-1,0.7-6.5,1.8-16.4,3.5
		c-4.6,2-7.6,3.1-9.2,3.3c-0.9,0.3-4.4,1.1-10.5,2.5l-8.6,1.8l-9.2,2.5l-8.2,1.2c-8.1,2.5-12.8,3.7-14.1,3.7c-1.4,0-3.5-0.1-6.1-0.2
		c-1.8,0-4.5-0.1-8-0.2v1.2c0,2.5-1.6,3.7-4.7,3.7c-0.5,0-1-0.1-1.6-0.2c-2.5-0.3-3.8-0.4-3.9-0.4c-0.1,0-0.8,0.1-2.1,0.4l-24,5.5
		c-5.1,1-10.9,1.7-17.6,2l-14.8,0.8h-0.8c-1.2,1.8-2.8,2.8-4.9,2.9c-6,0.3-11.1,0.4-15.4,0.4c-2.7,0-7.1-1.2-13.1-3.5
		c-1.3-0.5-2.9-0.8-4.9-0.8c-1.7,0-3.5,1.2-5.3,3.5l-9.6-0.4c-2.3-3.6-4.6-5.5-6.6-5.5h-0.6c-2.7,0-5.1,0.1-7.2,0.2
		c-2.1,0.3-3.3,0.4-3.5,0.4c-5,0-11.1-2-18.6-6.1c-5.6-3.1-11.8-6.1-18.8-9c-10.8-6.8-18-11-21.5-12.7l-1.4-3.5h4.3c0-1,0-2,0-2.7
		c0-4.3-1.6-6.6-4.9-7c-2,2.2-3.6,3.3-4.9,3.3c-0.7,0-2.9-1.6-6.8-4.9l-13.3-9.2l-4.1-5.7l-2-2.1L441,322
		c-10.2-13.8-16.9-29.3-20.3-46.5l3.9-2.3v-3.7l-4.3-2.9c0-3-0.6-5.8-1.8-8.4l-1.2-4.1c-1.4-2.2-2.2-3.6-2.3-4.3
		c-0.1-0.5-0.2-3-0.2-7.4l-0.8-8.6l1.2-3.9c-1.3-3.8-2-6.3-2-7.4c0-3,1-5.9,2.9-8.6C416.5,213.6,417,211.2,417.8,206.6z"/>
</g>
</svg>
