<?xml version="1.0" encoding="utf-8"?>
<!-- Generator: Adobe Illustrator 19.0.0, SVG Export Plug-In . SVG Version: 6.00 Build 0)  -->
<svg version="1.1" id="Capa_1" xmlns="http://www.w3.org/2000/svg" xmlns:xlink="http://www.w3.org/1999/xlink" x="0px" y="0px"
	 viewBox="-79 0 480 480" style="enable-background:new -79 0 480 480;" xml:space="preserve">
<style type="text/css">
	.st0{clip-path:url(#SVGID_2_);}
	.st1{fill:url(#path3462_1_);}
	.st2{clip-path:url(#SVGID_4_);}
	.st3{fill:#787BB3;}
	.st4{clip-path:url(#SVGID_6_);}
	.st5{fill:#010101;}
	.st6{fill:#FFFFFF;}
</style>
<g id="g3438" transform="matrix(1.25,0,0,-1.25,-4.4,394.29875)">
	<g id="g3440">
		<g>
			<defs>
				<path id="SVGID_1_" d="M-51.1,123.4c0-53.4,82.3-96.7,183.9-96.7l0,0c101.5,0,183.9,43.3,183.9,96.7l0,0
					c0,53.4-82.3,96.7-183.9,96.7l0,0C31.3,220.2-51.1,176.9-51.1,123.4"/>
			</defs>
			<clipPath id="SVGID_2_">
				<use xlink:href="#SVGID_1_"  style="overflow:visible;"/>
			</clipPath>
			<g id="g3442" class="st0">
				<g id="g3448">
					<g id="g3450">
						
							<radialGradient id="path3462_1_" cx="-122.8619" cy="-68.4064" r="0.665" gradientTransform="matrix(453.8224 0 0 -453.8224 55816.8125 -30858.2129)" gradientUnits="userSpaceOnUse">
							<stop  offset="0" style="stop-color:#AFB2D5"/>
							<stop  offset="0.3" style="stop-color:#AFB2D5"/>
							<stop  offset="0.75" style="stop-color:#484D8A"/>
							<stop  offset="1" style="stop-color:#484D8A"/>
						</radialGradient>
						<path id="path3462" class="st1" d="M-51.1,123.4c0-53.4,82.3-96.7,183.9-96.7l0,0c101.5,0,183.9,43.3,183.9,96.7l0,0
							c0,53.4-82.3,96.7-183.9,96.7l0,0C31.3,220.2-51.1,176.9-51.1,123.4"/>
					</g>
				</g>
			</g>
		</g>
	</g>
	<g id="g3464">
		<g>
			<defs>
				<rect id="SVGID_3_" x="-106.6" y="-11.2" width="478.8" height="269.3"/>
			</defs>
			<clipPath id="SVGID_4_">
				<use xlink:href="#SVGID_3_"  style="overflow:visible;"/>
			</clipPath>
			<g id="g3466" class="st2">
				<g id="g3472" transform="translate(288,27.3594)">
					<path id="path3474" class="st3" d="M-155.2,6.5c97.6,0,176.7,40.1,176.7,89.5c0,49.4-79.1,89.5-176.7,89.5
						s-176.7-40.1-176.7-89.5C-331.9,46.6-252.8,6.5-155.2,6.5"/>
				</g>
			</g>
		</g>
	</g>
	<g id="g3476">
		<g>
			<defs>
				<rect id="SVGID_5_" x="-106.6" y="-11.2" width="478.8" height="269.3"/>
			</defs>
			<clipPath id="SVGID_6_">
				<use xlink:href="#SVGID_5_"  style="overflow:visible;"/>
			</clipPath>
			<g id="g3478" class="st4">
				<g id="g3484" transform="translate(161.7344,145.3066)">
					<path id="path3486" class="st5" d="M-112.9-33c8,0,14,1.5,17.8,4.4c3.7,2.9,6.3,7.9,7.7,14.9c1.3,6.5,0.8,11.1-1.4,13.5
						c-2.3,2.5-7.2,3.8-14.6,3.8h-12.8l-7.1-36.6H-112.9z M-154.8-78c-0.6,0-1.2,0.3-1.5,0.7c-0.4,0.5-0.5,1.1-0.4,1.6l18.8,96.9
						c0.2,0.9,1,1.6,2,1.6h40.6c12.8,0,22.3-3.5,28.2-10.3c6-6.9,7.9-16.5,5.5-28.5c-1-4.9-2.6-9.5-4.9-13.6
						c-2.3-4.1-5.3-7.9-9-11.3c-4.4-4.1-9.4-7.1-14.8-8.9c-5.3-1.7-12.2-2.6-20.3-2.6h-16.4l-4.7-24.2c-0.2-0.9-1-1.6-2-1.6H-154.8z
						"/>
				</g>
				<g id="g3488" transform="translate(159.2236,197.3071)">
					<path id="path3490" class="st6" d="M-112.1-50.4h11.2c8.9,0,12-2,13.1-3.1c1.7-1.9,2.1-6,1-11.8c-1.3-6.5-3.6-11.1-7-13.7
						c-3.4-2.6-9-4-16.6-4h-8L-112.1-50.4z M-92.9-27.1h-40.6c-1.9,0-3.6-1.4-3.9-3.2l-18.8-96.9c-0.2-1.2,0.1-2.4,0.8-3.3
						c0.8-0.9,1.9-1.5,3.1-1.5h21.1c1.9,0,3.6,1.4,3.9,3.2l4.4,22.5h14.8c8.4,0,15.4,0.9,20.9,2.7c5.7,1.8,10.9,5,15.5,9.3
						c3.8,3.5,7,7.5,9.4,11.7c2.4,4.3,4.1,9,5.1,14.2c2.5,12.7,0.5,22.9-6,30.2C-69.5-30.8-79.5-27.1-92.9-27.1 M-123.2-87h12.8
						c8.5,0,14.9,1.6,19,4.8c4.2,3.2,7,8.6,8.4,16.1c1.4,7.2,0.8,12.3-1.9,15.2c-2.7,3-8,4.4-16,4.4h-14.5L-123.2-87 M-92.9-31.1
						c12.2,0,21.1-3.2,26.7-9.6c5.6-6.4,7.3-15.4,5.1-26.8c-0.9-4.7-2.5-9.1-4.7-13c-2.2-3.9-5.1-7.5-8.6-10.8
						c-4.2-3.9-8.9-6.8-14.1-8.4c-5.2-1.7-11.7-2.5-19.7-2.5h-18.1l-5-25.8h-21.1l18.8,96.9H-92.9"/>
				</g>
				<g id="g3492" transform="translate(311.583,116.3066)">
					<path id="path3494" class="st5" d="M-163.1-23.3c-0.6,0-1.2,0.3-1.5,0.7c-0.4,0.5-0.5,1.1-0.4,1.6l8.3,42.9
						c0.8,4.1,0.6,7-0.5,8.2c-0.7,0.8-2.8,2-9,2h-15.1l-10.5-53.9c-0.2-0.9-1-1.6-2-1.6h-20.9c-0.6,0-1.2,0.3-1.5,0.7
						c-0.4,0.5-0.5,1.1-0.4,1.6l18.8,96.9c0.2,0.9,1,1.6,2,1.6h20.9c0.6,0,1.2-0.3,1.5-0.7c0.4-0.5,0.5-1.1,0.4-1.6l-4.5-23.4h16.2
						c12.4,0,20.8-2.2,25.6-6.7c5-4.6,6.5-11.9,4.6-21.8l-8.8-45.1c-0.2-0.9-1-1.6-2-1.6H-163.1z"/>
				</g>
				<g id="g3496" transform="translate(293.6611,271.0571)">
					<path id="path3498" class="st6" d="M-157.1-75.1H-178c-1.9,0-3.6-1.4-3.9-3.2l-18.8-96.9c-0.2-1.2,0.1-2.4,0.8-3.3
						s1.9-1.5,3.1-1.5h20.9c1.9,0,3.6,1.4,3.9,3.2l10.2,52.3h13.5c6.2,0,7.5-1.3,7.6-1.4c0.4-0.4,0.9-2.3,0.1-6.5l-8.3-42.9
						c-0.2-1.2,0.1-2.4,0.8-3.3c0.8-0.9,1.9-1.5,3.1-1.5h21.3c1.9,0,3.6,1.4,3.9,3.2l8.8,45.1c2.1,10.6,0.3,18.5-5.2,23.6
						c-5.3,4.8-14.1,7.2-27,7.2h-13.8l4.1,21c0.2,1.2-0.1,2.4-0.8,3.3C-154.8-75.6-155.9-75.1-157.1-75.1 M-157.1-79.1l-5-25.8h18.7
						c11.7,0,19.8-2,24.3-6.1c4.5-4.1,5.8-10.7,4-19.9l-8.8-45.1h-21.3l8.3,42.9c0.9,4.9,0.6,8.2-1,10c-1.6,1.8-5.2,2.7-10.5,2.7
						h-16.7l-10.8-55.5h-20.9l18.8,96.9H-157.1"/>
				</g>
				<g id="g3500" transform="translate(409.5498,145.3066)">
					<path id="path3502" class="st5" d="M-195.9-33c8,0,14,1.5,17.8,4.4c3.7,2.9,6.3,7.9,7.7,14.9c1.3,6.5,0.8,11.1-1.4,13.5
						c-2.3,2.5-7.2,3.8-14.6,3.8h-12.8l-7.1-36.6H-195.9z M-237.9-78c-0.6,0-1.2,0.3-1.5,0.7c-0.4,0.5-0.5,1.1-0.4,1.6l18.8,96.9
						c0.2,0.9,1,1.6,2,1.6h40.6c12.8,0,22.3-3.5,28.2-10.3c6-6.9,7.9-16.5,5.5-28.5c-1-4.9-2.6-9.5-4.9-13.6
						c-2.3-4.1-5.3-7.9-9-11.3c-4.4-4.1-9.4-7.1-14.8-8.9c-5.3-1.7-12.2-2.6-20.3-2.6h-16.4l-4.7-24.2c-0.2-0.9-1-1.6-2-1.6H-237.9z
						"/>
				</g>
				<g id="g3504" transform="translate(407.0391,197.3071)">
					<path id="path3506" class="st6" d="M-195.1-50.4h11.2c8.9,0,12-2,13.1-3.1c1.7-1.9,2.1-6,1-11.8c-1.3-6.5-3.6-11.1-7-13.7
						c-3.4-2.6-9-4-16.6-4h-8L-195.1-50.4z M-175.9-27.1h-40.6c-1.9,0-3.6-1.4-3.9-3.2l-18.8-96.9c-0.2-1.2,0.1-2.4,0.8-3.3
						c0.8-0.9,1.9-1.5,3.1-1.5h21.1c1.9,0,3.6,1.4,3.9,3.2l4.4,22.5h14.8c8.4,0,15.4,0.9,20.9,2.7c5.7,1.8,10.9,5,15.5,9.3
						c3.8,3.5,7,7.5,9.4,11.7c2.4,4.3,4.1,9,5.1,14.2c2.5,12.7,0.5,22.9-6,30.2C-152.5-30.8-162.5-27.1-175.9-27.1 M-206.3-87h12.8
						c8.5,0,14.9,1.6,19,4.8c4.2,3.2,7,8.6,8.4,16.1c1.4,7.2,0.8,12.3-1.9,15.2c-2.7,3-8,4.4-16,4.4h-14.5L-206.3-87 M-175.9-31.1
						c12.2,0,21.1-3.2,26.7-9.6s7.3-15.4,5.1-26.8c-0.9-4.7-2.5-9.1-4.7-13c-2.2-3.9-5.1-7.5-8.6-10.8c-4.2-3.9-8.9-6.8-14.1-8.4
						c-5.2-1.7-11.7-2.5-19.7-2.5h-18.1l-5-25.8h-21.1l18.8,96.9H-175.9"/>
				</g>
			</g>
		</g>
	</g>
</g>
</svg>
