<?xml version="1.0" encoding="utf-8"?>
<!-- Generator: Adobe Illustrator 19.0.0, SVG Export Plug-In . SVG Version: 6.00 Build 0)  -->
<svg version="1.1" id="Capa_1" xmlns="http://www.w3.org/2000/svg" xmlns:xlink="http://www.w3.org/1999/xlink" x="0px" y="0px"
	 viewBox="0 0 480 480" style="enable-background:new 0 0 480 480;" xml:space="preserve">
<style type="text/css">
	.st0{fill:#61DAFB;}
</style>
<g id="XMLID_58_">
	<path id="XMLID_78_" class="st0" d="M436,197.5c0-26.2-32.8-51-83.1-66.4c11.6-51.2,6.4-92-16.3-105.1c-5.2-3.1-11.4-4.5-18-4.5v18
		c3.7,0,6.7,0.7,9.2,2.1c11,6.3,15.7,30.2,12,61c-0.9,7.6-2.3,15.6-4.1,23.7c-15.8-3.9-33-6.8-51.2-8.8
		c-10.9-14.9-22.2-28.4-33.5-40.3c26.3-24.4,50.9-37.8,67.7-37.8v-18c-22.2,0-51.2,15.8-80.5,43.2c-29.3-27.2-58.3-42.9-80.5-42.9
		v18c16.7,0,41.4,13.3,67.7,37.6c-11.3,11.8-22.6,25.3-33.3,40.2c-18.2,1.9-35.5,4.9-51.2,8.9c-1.9-8.1-3.2-15.9-4.2-23.4
		c-3.8-30.8,0.9-54.7,11.8-61.1c2.4-1.5,5.6-2.1,9.3-2.1v-18c-6.8,0-12.9,1.5-18.2,4.5c-22.6,13.1-27.7,53.7-16,104.8
		c-50.1,15.5-82.8,40.2-82.8,66.3c0,26.2,32.8,51,83.1,66.4c-11.6,51.2-6.4,92,16.3,105.1c5.2,3.1,11.4,4.5,18.1,4.5
		c22.2,0,51.2-15.8,80.5-43.2c29.3,27.2,58.3,42.9,80.5,42.9c6.8,0,12.9-1.5,18.2-4.5c22.6-13.1,27.7-53.7,16-104.8
		C403.4,248.4,436,223.6,436,197.5L436,197.5z M331.1,143.8c-3,10.4-6.7,21.1-10.9,31.8c-3.3-6.4-6.8-12.9-10.6-19.3
		c-3.7-6.4-7.7-12.7-11.6-18.9C309.5,139.1,320.5,141.2,331.1,143.8L331.1,143.8z M294.2,229.6c-6.3,10.9-12.7,21.2-19.4,30.8
		c-12,1-24.2,1.6-36.4,1.6c-12.2,0-24.3-0.6-36.3-1.5c-6.7-9.6-13.2-19.8-19.5-30.6c-6.1-10.6-11.7-21.3-16.8-32.1
		c5-10.8,10.6-21.6,16.7-32.2c6.3-10.9,12.7-21.2,19.4-30.8c12-1,24.2-1.6,36.4-1.6c12.2,0,24.3,0.6,36.3,1.5
		c6.7,9.6,13.2,19.8,19.5,30.6c6.1,10.6,11.7,21.3,16.8,32.1C305.8,208.2,300.2,219,294.2,229.6z M320.2,219.1
		c4.2,10.5,7.9,21.2,11.1,32.1c-10.6,2.6-21.7,4.8-33.2,6.4c3.9-6.2,7.9-12.6,11.6-19.1C313.4,232.1,316.9,225.6,320.2,219.1
		L320.2,219.1z M238.5,305.1c-7.5-7.7-15-16.4-22.4-25.8c7.3,0.3,14.7,0.6,22.2,0.6c7.6,0,15.1-0.2,22.4-0.6
		C253.8,288.3,246.4,296.9,238.5,305.1z M178.6,257.6c-11.4-1.7-22.5-3.8-33-6.4c3-10.4,6.7-21.1,10.9-31.8
		c3.3,6.4,6.8,12.9,10.6,19.3C170.7,245.2,174.6,251.5,178.6,257.6z M238.1,89.9c7.5,7.7,15,16.4,22.4,25.8
		c-7.3-0.3-14.7-0.6-22.2-0.6c-7.6,0-15.1,0.2-22.4,0.6C222.9,106.7,230.3,98.1,238.1,89.9z M178.5,137.4
		c-3.9,6.2-7.9,12.6-11.6,19.1c-3.7,6.4-7.2,12.9-10.5,19.3c-4.2-10.5-7.9-21.2-11.1-32.1C155.8,141.3,167,139.1,178.5,137.4z
		 M105.6,238.3c-28.5-12.2-47-28.1-47-40.8c0-12.7,18.5-28.7,47-40.8c6.9-3,14.5-5.6,22.3-8.1c4.6,15.8,10.6,32.2,18.1,49.1
		c-7.4,16.8-13.4,33.1-17.9,48.8C120.1,244,112.6,241.3,105.6,238.3L105.6,238.3z M148.9,353.4c-11-6.3-15.7-30.2-12-61
		c0.9-7.6,2.3-15.6,4.1-23.7c15.8,3.9,33,6.9,51.2,8.8c10.9,14.9,22.2,28.4,33.5,40.3c-26.3,24.4-50.9,37.8-67.7,37.8
		C154.4,355.5,151.3,354.8,148.9,353.4z M340,292c3.8,30.8-0.9,54.7-11.8,61.1c-2.4,1.5-5.6,2.1-9.3,2.1
		c-16.7,0-41.4-13.3-67.7-37.6c11.3-11.8,22.6-25.3,33.3-40.2c18.2-1.9,35.5-4.9,51.2-8.9C337.7,276.7,339.2,284.5,340,292L340,292z
		 M371.1,238.3c-6.9,3-14.5,5.6-22.3,8.1c-4.6-15.8-10.6-32.2-18.1-49.1c7.4-16.8,13.4-33.1,17.9-48.8c8,2.5,15.6,5.2,22.6,8.2
		c28.5,12.2,47,28.1,47,40.8C418,210.2,399.6,226.2,371.1,238.3L371.1,238.3z"/>
	<path id="XMLID_59_" class="st0" d="M238.3,234.3c20.3,0,36.8-16.5,36.8-36.8c0-20.3-16.5-36.8-36.8-36.8
		c-20.3,0-36.8,16.5-36.8,36.8C201.4,217.9,217.9,234.3,238.3,234.3z M58.6,436.9H46.5v20.9h-6.9v-51.8h17.1c5.8,0,10.3,1.3,13.4,4
		c3.2,2.7,4.7,6.5,4.7,11.6c0,3.2-0.9,6-2.6,8.4c-1.7,2.4-4.1,4.2-7.3,5.4l12.2,22v0.4h-7.3L58.6,436.9z M46.5,431.3H57
		c3.4,0,6.1-0.9,8.1-2.6c2-1.8,3-4.1,3-7c0-3.2-1-5.7-2.9-7.4c-1.9-1.7-4.6-2.6-8.2-2.6H46.5L46.5,431.3z M99.4,458.6
		c-5.2,0-9.5-1.7-12.7-5.1c-3.3-3.4-4.9-8-4.9-13.8v-1.2c0-3.8,0.7-7.2,2.2-10.2c1.5-3,3.5-5.4,6.1-7c2.6-1.7,5.5-2.6,8.5-2.6
		c5,0,8.9,1.6,11.7,4.9c2.8,3.3,4.2,8,4.2,14.1v2.7H88.4c0.1,3.8,1.2,6.9,3.3,9.2c2.1,2.3,4.8,3.5,8.1,3.5c2.3,0,4.3-0.5,5.9-1.4
		c1.6-0.9,3-2.2,4.2-3.8l4,3.1C110.7,456.1,105.9,458.6,99.4,458.6L99.4,458.6z M98.6,424.1c-2.7,0-4.9,1-6.7,2.9
		c-1.8,1.9-2.9,4.6-3.3,8.1h19.3v-0.5c-0.2-3.3-1.1-5.9-2.7-7.7C103.6,425,101.4,424.1,98.6,424.1L98.6,424.1z M145.8,457.8
		c-0.4-0.8-0.7-2.1-0.9-4.1c-3.1,3.2-6.7,4.8-10.9,4.8c-3.8,0-6.9-1.1-9.3-3.2c-2.4-2.2-3.6-4.9-3.6-8.2c0-4,1.5-7.1,4.5-9.3
		c3.1-2.2,7.3-3.3,12.9-3.3h6.4v-3c0-2.3-0.7-4.1-2.1-5.5c-1.4-1.4-3.4-2.1-6.1-2.1c-2.3,0-4.3,0.6-5.9,1.8
		c-1.6,1.2-2.4,2.6-2.4,4.3h-6.6c0-1.9,0.7-3.8,2-5.5c1.4-1.8,3.2-3.2,5.5-4.3c2.3-1,4.9-1.6,7.7-1.6c4.4,0,7.9,1.1,10.4,3.3
		c2.5,2.2,3.8,5.2,3.9,9.1v17.7c0,3.5,0.5,6.3,1.4,8.4v0.6L145.8,457.8z M134.9,452.8c2.1,0,4-0.5,5.9-1.6c1.8-1.1,3.2-2.5,4-4.2
		v-7.9h-5.2c-8.1,0-12.1,2.4-12.1,7.1c0,2.1,0.7,3.7,2.1,4.8C131,452.2,132.8,452.8,134.9,452.8L134.9,452.8z M177.1,453.2
		c2.3,0,4.4-0.7,6.1-2.1c1.8-1.4,2.7-3.2,2.9-5.3h6.2c-0.1,2.2-0.9,4.3-2.3,6.3c-1.4,2-3.3,3.6-5.6,4.8c-2.3,1.2-4.8,1.8-7.4,1.8
		c-5.2,0-9.4-1.7-12.5-5.2c-3.1-3.5-4.6-8.3-4.6-14.4v-1.1c0-3.7,0.7-7.1,2.1-10c1.4-2.9,3.3-5.2,5.9-6.8c2.6-1.6,5.6-2.4,9.1-2.4
		c4.3,0,7.9,1.3,10.7,3.9c2.9,2.6,4.4,5.9,4.6,10.1h-6.2c-0.2-2.5-1.1-4.5-2.8-6.1c-1.7-1.6-3.8-2.4-6.3-2.4c-3.3,0-5.9,1.2-7.8,3.6
		c-1.8,2.4-2.7,5.9-2.7,10.4v1.2c0,4.4,0.9,7.8,2.7,10.2C171.1,452,173.7,453.2,177.1,453.2L177.1,453.2z M208.7,410.1v9.3h7.2v5.1
		h-7.2v23.8c0,1.5,0.3,2.7,1,3.5c0.6,0.8,1.7,1.1,3.3,1.1c0.8,0,1.8-0.1,3.1-0.4v5.3c-1.7,0.5-3.4,0.7-5,0.7c-2.9,0-5.2-0.9-6.6-2.7
		c-1.5-1.8-2.2-4.3-2.2-7.6v-23.8h-7v-5.1h7v-9.3H208.7z M282.5,457.8h-6.9L249.5,418v39.9h-6.9v-51.8h6.9l26.1,40.1v-40.1h6.8
		L282.5,457.8z M317.3,457.8c-0.4-0.8-0.7-2.1-0.9-4.1c-3.1,3.2-6.7,4.8-10.9,4.8c-3.8,0-6.9-1.1-9.3-3.2c-2.4-2.2-3.6-4.9-3.6-8.2
		c0-4,1.5-7.1,4.5-9.3c3.1-2.2,7.3-3.3,12.9-3.3h6.4v-3c0-2.3-0.7-4.1-2.1-5.5c-1.4-1.4-3.4-2.1-6.1-2.1c-2.3,0-4.3,0.6-5.9,1.8
		c-1.6,1.2-2.4,2.6-2.4,4.3h-6.6c0-1.9,0.7-3.8,2-5.5c1.4-1.8,3.2-3.2,5.5-4.3c2.3-1,4.9-1.6,7.7-1.6c4.4,0,7.9,1.1,10.4,3.3
		c2.5,2.2,3.8,5.2,3.9,9.1v17.7c0,3.5,0.5,6.3,1.4,8.4v0.6L317.3,457.8z M306.4,452.8c2.1,0,4-0.5,5.9-1.6c1.8-1.1,3.2-2.5,4-4.2
		v-7.9h-5.2c-8.1,0-12.1,2.4-12.1,7.1c0,2.1,0.7,3.7,2.1,4.8C302.5,452.2,304.2,452.8,306.4,452.8L306.4,452.8z M342.1,410.1v9.3
		h7.2v5.1h-7.2v23.8c0,1.5,0.3,2.7,1,3.5c0.6,0.8,1.7,1.1,3.3,1.1c0.8,0,1.8-0.1,3.1-0.4v5.3c-1.7,0.5-3.4,0.7-5,0.7
		c-2.9,0-5.2-0.9-6.6-2.7c-1.5-1.8-2.2-4.3-2.2-7.6v-23.8h-7v-5.1h7v-9.3H342.1z M364.1,457.8h-6.6v-38.5h6.6V457.8z M357,409.2
		c0-1.1,0.3-2,1-2.7c0.7-0.7,1.6-1.1,2.9-1.1c1.3,0,2.3,0.4,2.9,1.1c0.7,0.7,1,1.6,1,2.7c0,1.1-0.3,2-1,2.7
		c-0.7,0.7-1.6,1.1-2.9,1.1c-1.3,0-2.3-0.4-2.9-1.1C357.3,411.1,357,410.2,357,409.2z M387.3,448.9l9.5-29.5h6.7l-13.8,38.5h-5
		l-13.9-38.5h6.7L387.3,448.9z M425.4,458.6c-5.2,0-9.5-1.7-12.7-5.1c-3.3-3.4-4.9-8-4.9-13.8v-1.2c0-3.8,0.7-7.2,2.2-10.2
		c1.5-3,3.5-5.4,6.1-7c2.6-1.7,5.5-2.6,8.5-2.6c5,0,8.9,1.6,11.7,4.9c2.8,3.3,4.2,8,4.2,14.1v2.7h-26.1c0.1,3.8,1.2,6.9,3.3,9.2
		c2.1,2.3,4.8,3.5,8.1,3.5c2.3,0,4.3-0.5,5.9-1.4c1.6-0.9,3-2.2,4.2-3.8l4,3.1C436.7,456.1,431.8,458.6,425.4,458.6L425.4,458.6z
		 M424.6,424.1c-2.7,0-4.9,1-6.7,2.9c-1.8,1.9-2.9,4.6-3.3,8.1h19.3v-0.5c-0.2-3.3-1.1-5.9-2.7-7.7
		C429.5,425,427.3,424.1,424.6,424.1L424.6,424.1z"/>
</g>
</svg>
