<?xml version="1.0" encoding="utf-8"?>
<!-- Generator: Adobe Illustrator 19.0.0, SVG Export Plug-In . SVG Version: 6.00 Build 0)  -->
<svg version="1.1" id="Capa_1" xmlns="http://www.w3.org/2000/svg" xmlns:xlink="http://www.w3.org/1999/xlink" x="0px" y="0px"
	 viewBox="0 0 480 480" style="enable-background:new 0 0 480 480;" xml:space="preserve">
<style type="text/css">
	.st0{opacity:0.3922;fill:#A5AAAA;}
	.st1{fill:#F6BD3A;}
	.st2{fill:#EB8C23;}
	.st3{fill:#E35A2B;}
	.st4{fill:#EF6639;}
	.st5{fill:#A6A7A9;}
</style>
<g id="XMLID_70_">
	<polygon id="XMLID_72_" class="st0" points="332.1,43.5 442,105.7 443.2,149.1 370.2,113.4 369.4,144.3 408.7,162.7 410.3,208.9 
		372.2,194.4 375,267.9 332.5,245 	"/>
</g>
<g id="XMLID_64_">
	<polygon id="XMLID_74_" class="st0" points="43.5,121.6 185.3,40.7 188.4,81.9 144.1,107.7 146.4,267.2 108.3,287.2 101.7,133.5 
		47.4,164.7 43.9,123.1 	"/>
</g>
<g id="XMLID_29_" transform="translate(-77 -105.12415)">
	<path id="XMLID_63_" class="st1" d="M305.9,331.8l30.1-17.4l29.6,17.4L335.9,349l-30.1-16.7V331.8z"/>
	<path id="XMLID_62_" class="st1" d="M215.6,280.3L335.9,212l89.5,50.9l-29.8,51.6l-59.8-34.2l-90.2,51.2L215.6,280.3z"/>
	<path id="XMLID_58_" class="st2" d="M305.9,400.2v-34.1l29.7-17.2l30-17.1v34.3l-29.6,17v34.1l-30.1,17.5L305.9,400.2z
		 M305.9,331.8l-30.1-17l-30.1,16.7v-34.1l90.2-51.2v68.3L305.9,331.8z M395.3,297.4v-17.1l30.2-17.4l0.3,34.2l-30.1,17.4
		L395.3,297.4z"/>
	<path id="XMLID_54_" class="st3" d="M275.8,416.6V314.8l29.6-16.7l0.4,33.7l30.1,16.8v34.5l-30.1-16v67.5L275.8,416.6z
		 M230.5,322.6l-14.8-8.9v-33.4l30.1,17.1v34.1L230.5,322.6z M335.9,280.3v-34.2l59.3,34.2l0.4,34.2L335.9,280.3z"/>
	<path id="XMLID_53_" class="st4" d="M110.7,470.6v65.1H99.3v-65.1H77v-11.2h56v11.2H110.7z"/>
	<path id="XMLID_37_" class="st4" d="M171,494.3c1,3.4,1,8.1,0.9,8.6l-37,11c0.3,2.7,0.2,1.6,1.1,3.6c0.9,2,2,3.7,3.3,4.9
		c1.3,1.2,2.8,2.2,4.4,2.9c1.6,0.6,3.3,0.9,5,0.9c2.4,0,4.6-0.4,6.6-1.2c2.1-0.8,4-1.9,5.8-3.3l6.7,7.1c-2.5,2.4-5.4,4.3-8.6,5.6
		c-3.1,1.4-6.8,2-11.2,2c-3.3,0-6.5-0.6-9.5-2c-3-1.3-5.7-3.3-7.9-5.7c-2.3-2.6-4.1-5.7-5.3-9.4c-1.4-3.7-2-7.9-2-12.7
		c0-5,0.6-9.3,1.8-13c1.3-3.7,3-6.7,5.1-9.3c2.2-2.5,4.9-4.4,7.9-5.7c3.1-1.3,6.5-2,10.2-2c4.1,0,7.6,0.8,10.6,2.3
		c3.1,1.5,5.6,3.6,7.5,6.2C168.5,487.8,170,490.8,171,494.3z M160.2,496.9c-0.1-1.9-1.5-4.3-2.6-5.8c-1-1.4-2.5-2.5-4-3.1
		c-1.7-0.7-4-0.9-6-0.8c-3.8,0.1-7.9,1.4-10,4.3c-2.1,2.9-2.7,7.8-2.6,13L160.2,496.9z M212.5,535.2v-32.5c0-5.9-1.1-9.9-3.1-12.2
		c-2.1-2.3-5-3.5-8.7-3.5c-3.8,0-6.7,1.3-8.7,3.8c-2.1,2.6-3.1,6.2-3.1,10.8v33.6h-11.3v-57.4H189v5.5c1.4-2.1,3.5-3.7,6.1-4.9
		c2.6-1.2,5.4-1.8,8.3-1.8c6.7,0,11.8,2.2,15.2,6.5c3.5,4.3,5.2,10.7,5.2,19.2v32.9L212.5,535.2z M270,520.1c0,3.2-0.6,5.8-1.8,8
		c-1.2,2.1-2.8,3.9-4.8,5.2c-2,1.3-4.3,2.2-6.8,2.8c-2.6,0.5-5.3,0.8-8.1,0.8c-4,0-7.9-0.8-11.7-2.2c-3.9-1.4-7.3-3.1-10.3-5.2
		l5.2-8.4c2.7,1.9,5.5,3.3,8.4,4.2c2.9,0.9,5.7,1.4,8.3,1.4c7,0,10.5-2.1,10.5-6.3c0-2.1-1.2-4-3.5-5.3c-2.4-1.3-5.6-2.7-9.8-4.3
		c-3.1-1.2-5.6-2.4-7.8-3.6c-2.2-1.1-3.9-2.5-5.3-3.9c-1.3-1.4-2.3-2.8-2.9-4.6c-0.5-1.6-0.8-3.7-0.8-5.9c0-2.6,0.5-4.9,1.4-6.8
		c0.9-2,2.3-3.7,4.1-4.9c1.7-1.4,3.8-2.3,6.2-3c2.4-0.6,5.1-1,7.9-1c3.6,0,7.1,0.6,10.5,1.8c3.3,1.2,6.4,2.7,8.9,4.6l-4.9,8.6
		c-2.3-1.6-4.7-2.8-7.1-3.7c-2.4-0.8-5-1.1-7.8-1.1c-2.7,0-4.8,0.5-6,1.5c-1.3,1-1.9,2.2-1.9,3.8c0,0.7,0.1,1.4,0.4,1.9
		c0.3,0.7,0.8,1.4,1.6,1.9c0.7,0.7,1.9,1.3,3.2,2.1c1.3,0.7,3.1,1.5,5.3,2.3c3.2,1.2,6,2.5,8.4,3.5c2.4,1.2,4.4,2.4,6.1,3.8
		c1.6,1.4,2.8,3.2,3.6,5.1C269.6,515.1,270,517.5,270,520.1L270,520.1z M322.3,506.9c0,4.8-0.6,9-2,12.7c-1.3,3.8-3.1,6.9-5.4,9.6
		c-2.3,2.5-5.1,4.5-8.2,5.8c-3.1,1.3-6.6,2.1-10.3,2.1c-3.6,0-7-0.8-10-2.2c-3.1-1.4-5.7-3.3-8-6.1c-2.2-2.5-4-5.7-5.3-9.4
		c-1.3-3.6-1.9-7.6-1.9-12.2c0-4.7,0.6-8.9,1.9-12.6c1.3-3.7,3.1-6.8,5.4-9.4c2.3-2.6,5-4.6,8.1-5.9c3.1-1.3,6.4-2.1,10.1-2.1
		c3.6,0,7,0.7,10.2,2.1c3,1.4,5.9,3.5,8.1,6c2.3,2.6,4.1,5.7,5.3,9.3C321.7,498.3,322.3,502.5,322.3,506.9L322.3,506.9z
		 M310.9,507.2c0-5.9-1.2-10.5-3.8-14.1c-2.6-3.3-6.2-5.1-10.7-5.1c-4.3,0-7.7,1.8-10.1,5.1c-2.5,3.5-3.7,8.1-3.7,13.7
		c0,6.4,1.3,11.1,4,14.4c2.6,3.3,6.1,5.1,10.3,5.1c2.1,0,4-0.5,5.8-1.6c1.7-1.1,3.2-2.4,4.5-4c1.2-1.8,2.1-3.8,2.8-6.1
		C310.6,512.3,310.9,509.9,310.9,507.2z M358.6,490.3c-1.3-0.5-2.5-1.1-3.9-1.5c-1.3-0.4-2.9-0.6-4.8-0.6c-3.6,0-6.3,1.2-8.3,3.7
		c-1.9,2.4-2.9,6.2-2.9,10.9v32.8h-11.2v-57.3h11.2v5.5c1.3-1.9,3.1-3.5,5.4-4.8c2.3-1.2,4.8-1.9,7.7-1.9c2.3,0,4.3,0.2,5.8,0.6
		c1.5,0.4,2.8,1,3.9,1.8L358.6,490.3z"/>
	<path id="XMLID_30_" class="st5" d="M377.4,470.6v20h22v11.2h-22v33.9H366v-76.4h49.3v11.2L377.4,470.6z M417.1,535.8v-73.7
		l11.2-5.9v79.6L417.1,535.8L417.1,535.8z M485.7,506.9c0,4.8-0.5,9-1.9,12.7c-1.4,3.8-3.2,6.9-5.5,9.6c-2.3,2.5-5,4.5-8.1,5.8
		c-3.2,1.3-6.6,2.1-10.3,2.1c-3.7,0-7-0.8-10-2.2c-3.1-1.4-5.8-3.3-8-6.1c-2.2-2.5-4-5.7-5.4-9.4c-1.2-3.6-1.9-7.6-1.9-12.2
		c0-4.7,0.7-8.9,2-12.6c1.3-3.7,3.1-6.8,5.5-9.4c2.3-2.6,5-4.6,8-5.9c3.2-1.3,6.5-2.1,10.2-2.1c3.6,0,7,0.7,10.1,2.1
		c3.1,1.4,5.9,3.5,8.2,6c2.3,2.6,4,5.7,5.2,9.3C485.2,498.3,485.7,502.5,485.7,506.9L485.7,506.9z M474.4,507.2
		c0-5.9-1.3-10.5-3.8-14.1c-2.7-3.3-6.2-5.1-10.7-5.1c-4.3,0-7.7,1.8-10.2,5.1c-2.4,3.5-3.6,8.1-3.6,13.7c0,6.4,1.3,11.1,4,14.4
		c2.5,3.3,6.1,5.1,10.3,5.1c2.1,0,4-0.5,5.7-1.6c1.8-1.1,3.2-2.4,4.6-4c1.2-1.8,2.1-3.8,2.8-6.1
		C474.1,512.3,474.4,509.9,474.4,507.2z M541.3,535.8h-9.6l-7.8-28.9c-0.6-2.2-1.1-4.4-1.6-6.7c-0.6-2.3-1-4.1-1.4-5.5
		c-0.4,1.9-0.8,3.7-1.2,5.5c-0.6,2.3-1.2,4.6-1.6,6.9l-7.7,28.8h-9.7L485,478.5h11.1l6.9,27.8c0.5,2.3,1,4.6,1.5,7
		c0.5,2.4,0.9,4.2,1.3,5.6l1.4-5.6c0.5-2.3,1.1-4.7,1.7-7l7.7-27.8h9l7.9,28c0.6,2.2,1,4.5,1.6,6.8c0.6,2.4,1,4.2,1.3,5.6
		c0.4-1.4,0.9-3.3,1.3-5.7c0.5-2.3,0.9-4.6,1.5-6.9l6.9-27.8h11.1L541.3,535.8z"/>
</g>
</svg>
